# xmcd
#
# Track frame offsets:
#	150
#	18540
#	27650
#	42367
#	55453
#	84209
#
# Disc length: 1464 seconds
#
# Revision: 1
# Processed by: cddbd v1.5.2PL0 Copyright (c) Steve Scherf et al.
# Submitted via: audiograbber 1.82.02
#
DISCID=4805b606
DTITLE=Various Artist - Music For Your Devices
DYEAR=2007
DGENRE=Country
TTITLE0=Fionn Regan - Put a Penny in the Slot
TTITLE1=Hayes Carli - Love at First Sight (demo)
TTITLE2=Golden Smog - Scotch on Ice
TTITLE3=Willie Nelson, Merle Haggard and Ray Price - Lost Highway
TTITLE4=Ryan Bingham - Southside of Heaven
TTITLE5=Lucinda Williams - What If
EXTD=
EXTT0=
EXTT1=
EXTT2=
EXTT3=
EXTT4=
EXTT5=
PLAYORDER=
